<svg height="32" viewBox="0 0 1024 1024" width="32" xmlns="http://www.w3.org/2000/svg"><path d="m512 822c171.208 0 310-138.792 310-310s-138.792-310-310-310-310 138.792-310 310 138.792 310 310 310zm0 90c-220.914 0-400-179.086-400-400s179.086-400 400-400 400 179.086 400 400-179.086 400-400 400z"/><path d="m310.93 638.328c-12.332-21.576-4.836-49.066 16.74-61.398 21.58-12.332 49.068-4.836 61.4 16.74 26.538 46.436 65.516 68.33 122.934 68.33s96.398-21.896 122.934-68.328c12.332-21.58 39.82-29.074 61.4-16.74 21.576 12.33 29.072 39.82 16.74 61.396-42.808 74.9-111.83 113.672-201.074 113.672s-158.266-38.772-201.074-113.672z"/><path d="m292 432a50 50 0 1 0 100 0 50 50 0 1 0 -100 0z"/><path d="m632 432a50 50 0 1 0 100 0 50 50 0 1 0 -100 0z"/></svg>